# xmcd
#
# Track frame offsets:
#	150
#	22154
#	35531
#	55590
#	68920
#	81946
#	111930
#	125280
#	143067
#	161879
#	185197
#	204143
#
# Disc length: 2989 seconds
#
# Revision: 0
# Processed by: cddbd v1.5.2PL0 Copyright (c) Steve Scherf et al.
# Submitted via: EasyCDDAExtractor 16.0.1.1
#
DISCID=aa0bab0c
DTITLE=Harpdog Brown and The Bloodhounds - Live At The Sidetrack Cafe
DYEAR=2000
DGENRE=Blues
TTITLE0=They Call Me Harpdog Brown
TTITLE1=Crazy For My Baby
TTITLE2=How Come
TTITLE3=High Temperature
TTITLE4=Juke
TTITLE5=Don't Push It
TTITLE6=Blues For Big Onion
TTITLE7=Gone To Main St
TTITLE8=Foul Weather Blues
TTITLE9=Mellow Down Easy
TTITLE10=Everyday I Got The Blues
TTITLE11=Boogie Thing
EXTD=
EXTT0=
EXTT1=
EXTT2=
EXTT3=
EXTT4=
EXTT5=
EXTT6=
EXTT7=
EXTT8=
EXTT9=
EXTT10=
EXTT11=
PLAYORDER=
